<?xml version="1.0" encoding="utf-8"?>
<!-- Svg Vector Icons : http://www.onlinewebfonts.com/icon -->
<!DOCTYPE svg PUBLIC "-//W3C//DTD SVG 1.1//EN" "http://www.w3.org/Graphics/SVG/1.1/DTD/svg11.dtd">
<svg version="1.1" xmlns="http://www.w3.org/2000/svg" xmlns:xlink="http://www.w3.org/1999/xlink" x="0px" y="0px" viewBox="0 0 1000 1000" enable-background="new 0 0 1000 1000" xml:space="preserve">
<metadata> Svg Vector Icons : http://www.onlinewebfonts.com/icon </metadata>
<g><path d="M839.2,10H160.8c-41.6,0-75.4,33.8-75.4,75.4v829.2c0,41.6,33.8,75.4,75.4,75.4h452.3l301.5-263.8v-75.4l0-565.4C914.6,43.8,880.9,10,839.2,10z M650.8,856.8V726.2h149.4L650.8,856.8z M839.2,650.8H650.8c-41.6,0-75.4,33.8-75.4,75.4v188.5l-414.6,0V85.4h678.5L839.2,650.8z"/><path d="M513.7,225.1l-53.3-53.3L353.8,278.4l-53.3-53.3l-53.3,53.3L353.8,385L513.7,225.1z"/><path d="M537.7,273.8h226.2v37.7H537.7V273.8z"/><path d="M513.7,451.3L460.4,398L353.8,504.6l-53.3-53.3l-53.3,53.3l106.6,106.6L513.7,451.3z"/><path d="M537.7,500h226.2v37.7H537.7V500L537.7,500z"/></g>
</svg>